<?xml version="1.0" encoding="utf-8"?>
<!-- Generator: Adobe Illustrator 16.0.0, SVG Export Plug-In . SVG Version: 6.00 Build 0)  -->
<!DOCTYPE svg PUBLIC "-//W3C//DTD SVG 1.1//EN" "http://www.w3.org/Graphics/SVG/1.1/DTD/svg11.dtd">
<svg version="1.1" id="Layer_1" xmlns="http://www.w3.org/2000/svg" xmlns:xlink="http://www.w3.org/1999/xlink" x="0px" y="0px"
	 width="612px" height="792px" viewBox="0 0 612 792" enable-background="new 0 0 612 792" xml:space="preserve">
<path fill="#FFFFFF" d="M316.296,172.783c-153.535,0-278,124.465-278,278s124.465,278,278,278s278-124.465,278-278
	S469.831,172.783,316.296,172.783z M412.591,559.224l0.897-3.097c-0.036,0.017-0.07,0.033-0.109,0.05l-0.895,3.047
	c-2.681,0-4.85-0.21-4.85-0.469l0.001-0.005c-18.138-0.091-32.891-15.188-33.752-34.174h-0.288V360.025h-61.207V339.73h148.988
	v20.295h-61.504v164.052c1.374,3.245,7.953,5.704,15.894,5.716c0.126-0.133,2.501-0.239,5.428-0.239l0.003-0.01
	c33.772,0.603,71.519-40.595,71.519-110.867c0-87.844-57.608-150.851-160.25-150.851c-107.944,0-198.665,78.155-198.665,201.134
	c0,101.169,72.182,163.566,170.186,163.566c37.746,0,72.847-7.267,99.992-21.2l10.604,26.048
	c-36.427,17.569-73.51,24.235-117.883,24.235c-108.6,0-200.647-72.703-200.647-189.02c0-124.794,94.7-232.633,241.708-232.633
	c115.225,0,192.706,73.913,192.706,175.084C530.467,505.91,474.837,559.224,412.591,559.224z M259.695,514.564
	c14.238,0,28.744-3.09,38.146-7.869l4.834,19.396c-8.594,4.497-25.787,8.995-47.813,8.995c-51.039,0-89.451-33.731-89.451-95.852
	c0-59.31,38.413-99.504,94.556-99.504c22.563,0,36.8,5.059,42.979,8.433l-5.64,19.956c-8.865-4.496-21.49-7.87-36.534-7.87
	c-42.442,0-70.647,28.389-70.647,78.14C190.122,484.771,215.643,514.564,259.695,514.564z"/>
</svg>
